<?xml version="1.0" encoding="utf-8"?><!DOCTYPE svg PUBLIC "-//W3C//DTD SVG 1.1//EN" "http://www.w3.org/Graphics/SVG/1.1/DTD/svg11.dtd"><svg xmlns="http://www.w3.org/2000/svg" xml:space="preserve" width="162px" height="153px" x="0px" y="0px" version="1.1" viewBox="0 0 162 153"><path fill="#fff" d="M0 0h162v153H0z"/><path fill-rule="evenodd" d="M34.244 36.28c.71 1.93.5 3.72 1.48 8.72 1.27 6.65 6.479 20.9 8.1 27.08h9.51c1.689-6.18 6.84-20.43 8.109-27.08.98-5 .771-6.79 1.48-8.72v35.8h9.29V28.96h-14.93c-2.539 8.32-6.059 18.23-7.26 24.36-1.119 5.72-1.119 8.12-1.41 11.64-.35-3.52-.279-5.92-1.479-11.64-.56-3.07-1.76-7.06-3.101-11.32-1.329-4.26-2.879-8.85-4.149-13.04h-14.94v43.12h9.301v-35.8zm96.51.26v-4.46h4.721v4.46h-4.721zm7.82 3V29.16h-10.99v10.38h10.99zm-52.27 38.47h4.72v4.461h-4.72V78.01zm-3.1 7.39h10.989V75.01H83.204V85.4zm-29.511 28.28c0 .73-.64 1.33-1.41 1.33H34.384V83.73h17.899c.771 0 1.41.6 1.41 1.33v28.62zm-4.16-38.67h-24.59v47.86h24.59c7.471 0 13.531-5.729 13.531-12.78V87.86c0-7.06-6.06-12.85-13.531-12.85zm81.221-5.39V45.6h4.721v24.02h-4.721zm7.82 2.46V42.6h-10.99v29.48h10.99zM80.533 36.54v-4.46h4.721v4.46h-4.721zm7.891 3V29.16h-10.99v10.38h10.99zm27.471 42.931V78.01h4.719v4.461h-4.719zm7.888 2.929V75.01h-10.989V85.4h10.989zm11.761 5.18v4h-14.229v21.561h14.229v4h-15.42c-.71 0-1.341-.271-1.83-.601a2.885 2.885 0 0 1-1.271-2.399V93.58c0-1 .49-1.859 1.271-2.391.489-.399 1.12-.609 1.83-.609h15.42zm-15.21-2.721c-.71 0-1.41.061-2.04.261-2.54.87-4.37 3.13-4.37 5.729v23.03c0 2.591 1.83 4.851 4.37 5.72.63.2 1.33.271 2.04.271h18.311v-9.72h-14.16V97.58h14.16v-9.721h-18.311zm15.141-9.849v4.461h-4.721V78.01h4.721zm-7.821-3V85.4h10.99V75.01h-10.99zm-26.69-25.35v19.96h-4.51V50.79c0-2.86 2.46-5.19 5.42-5.19h12.54c1.48 0 2.89.59 3.88 1.53.979.93 1.54 2.26 1.54 3.66v18.83h-4.43V49.66h-14.44zm21.83 22.42V50.72c0-3.06-1.83-5.79-4.5-7.19a9.405 9.405 0 0 0-4.09-.93h-12.261c-4.719 0-8.66 3.66-8.66 8.12v21.36h10.771v-19.5h8.181v19.5h10.559zm-46.42 18.91v29.279h-4.72V90.99h4.72zm-7.89-3.131v35.011h10.99V87.859h-10.99zM85.395 69.62h-4.721V45.6h4.721v24.02zm3.089-27.02h-10.98v29.48h10.98V42.6zm12.69 39.871V78.01h4.71v4.461h-4.71zm6.971 2.929h.92V75.01h-10.99V85.4h10.07zm-36.631-2.929V78.01h4.721v4.461h-4.721zm7.89 2.929V75.01h-10.99V85.4h10.99zm27.821 31.209v.531c0 1.67-1.4 3-3.171 3H86.875v-4h15.989v-8.65h-13.46c-.28 0-.49 0-.7-.061-1.41-.27-2.47-1.47-2.47-2.93V93.58c0-1.391 1.06-2.59 2.47-2.93h17.89v3.93h-15.99v8.65h13.45c1.771 0 3.171 1.33 3.171 2.93v10.449zm.92-14.569c-1.131-1-2.611-1.601-4.301-1.601h-10.14V97.58h15.989v-9.721H88.704c-3.101.471-5.5 2.99-5.5 5.99v10.381c0 3.06 2.399 5.59 5.5 5.99.28.069.56.069.84.069h10.149v2.86h-15.92v9.72h20.07c1.689 0 3.17-.601 4.301-1.54 1.27-1.13 2.109-2.721 2.109-4.45V106.49c.001-1.79-.839-3.39-2.108-4.45zm43.609 28.08c0 6.06-5.359 11.11-11.77 11.11H21.354c-6.479 0-11.76-5.051-11.76-11.11V22.37c0-6.12 5.28-11.12 11.76-11.12h118.631c6.41 0 11.77 5 11.77 11.12v107.75zM140.193 7.79H21.074c-8.311 0-15.08 6.46-15.08 14.31v108.22c0 7.92 6.77 14.31 15.08 14.31h119.119c8.32 0 15.15-6.46 15.15-14.31V22.1c.001-7.85-6.829-14.31-15.15-14.31z" clip-rule="evenodd"/></svg>
